<?xml version="1.0" encoding="UTF-8"?>
<svg width="20px" height="20px" viewBox="0 0 20 20" version="1.1" xmlns="http://www.w3.org/2000/svg" xmlns:xlink="http://www.w3.org/1999/xlink">
    <title>footer-facebook</title>
    <defs>
        <rect id="path-1" x="0" y="0" width="20" height="20"></rect>
    </defs>
    <g id="Symbols" stroke="none" stroke-width="1" fill="none" fill-rule="evenodd">
        <g id="footer" transform="translate(-1210, -163)">
            <g id="brand-/-facebook" transform="translate(1210, 163)">
                <mask id="mask-2" fill="white">
                    <use xlink:href="#path-1"></use>
                </mask>
                <g id="brand-/-facebook-(Background/Mask)"></g>
                <path d="M1.66829427,10.0007947 C1.66829427,14.1591279 4.71496105,17.6057929 8.69912783,18.2332929 L8.69912783,12.4099612 L6.5824612,12.4099612 L6.5824612,10.0007947 L8.69912783,10.0007947 L8.69912783,8.16496134 C8.69912783,6.07496142 9.94329453,4.92246091 11.8457945,4.92246091 C12.4535723,4.92246091 13.0757944,4.97662769 13.712461,5.08496126 L13.712461,7.13412762 L12.6591277,7.13412762 C11.6257944,7.13412762 11.3024608,7.77746071 11.3024608,8.43662739 L11.3024608,9.99912739 L13.6116274,9.99912739 L13.2424609,12.4082947 L11.3024608,12.4082947 L11.3024608,18.2316271 C15.2866276,17.6074605 18.3332936,14.1599615 18.3332936,10.0007947 C18.3332936,5.3991282 14.6024613,1.66829427 10.0007947,1.66829427 C5.3991282,1.66829427 1.66829427,5.3991282 1.66829427,10.0007947 Z" fill="#FFFFFF" fill-rule="nonzero" mask="url(#mask-2)"></path>
            </g>
        </g>
    </g>
</svg>