<?xml version="1.0" encoding="UTF-8"?>
<svg width="13px" height="13px" viewBox="0 0 13 13" version="1.1" xmlns="http://www.w3.org/2000/svg" xmlns:xlink="http://www.w3.org/1999/xlink">
    <title>footer-x</title>
    <g id="Symbols" stroke="none" stroke-width="1" fill="none" fill-rule="evenodd">
        <g id="footer" transform="translate(-1213, -196)" fill="#FFFFFF" fill-rule="nonzero">
            <path d="M1216.987,196 L1217.08301,196.050899 L1220.22628,200.616814 L1224.17374,196.040633 L1224.26183,196 L1225.62741,196 L1225.45596,196.198758 L1220.85749,201.529644 L1225.87026,208.811526 L1226,209 L1222.04669,209 L1221.95066,208.949072 L1218.62595,204.117326 L1214.45052,208.959374 L1214.36243,209 L1213,209 L1213.17134,208.801264 L1217.99551,203.204496 L1213.16344,196.188494 L1213.03363,196 L1216.987,196 Z M1216.39753,197.068426 L1214.9904,197.068426 L1218.79656,202.499044 L1219.2915,203.206536 L1222.62677,207.968926 L1224.0339,207.968926 L1220.03547,202.260953 L1219.54055,201.553487 L1216.39753,197.068426 Z" id="footer-x"></path>
        </g>
    </g>
</svg>