<?xml version="1.0" encoding="UTF-8"?>
<svg width="20px" height="20px" viewBox="0 0 20 20" version="1.1" xmlns="http://www.w3.org/2000/svg" xmlns:xlink="http://www.w3.org/1999/xlink">
    <title>footer-youtube</title>
    <defs>
        <rect id="path-1" x="0" y="0" width="20" height="20"></rect>
    </defs>
    <g id="Symbols" stroke="none" stroke-width="1" fill="none" fill-rule="evenodd">
        <g id="footer" transform="translate(-1210, -249)">
            <g id="brand-/-youtube" transform="translate(1210, 249)">
                <mask id="mask-2" fill="white">
                    <use xlink:href="#path-1"></use>
                </mask>
                <g id="brand-/-youtube-(Background/Mask)"></g>
                <path d="M16.5258026,4.5308395 C15.6558026,4.2919506 13.480525,4.17055966 9.9999698,4.16666667 C6.51996977,4.16278188 4.34469197,4.27500616 3.47413639,4.5033395 C2.77413641,4.69417284 2.19580295,5.27083983 2.00246962,5.98500649 C1.77302519,6.85500648 1.6571914,8.19222874 1.65496826,9.99667327 C1.65274686,11.8100062 1.76552505,13.1472282 1.99330283,14.0083392 C2.1849695,14.7225059 2.74746979,15.2866737 3.46246978,15.4791737 C4.34135867,15.7180626 6.51635859,15.8394531 9.98746951,15.8433453 C13.4680253,15.84723 15.6433031,15.7352835 16.5133031,15.5075057 C17.2266365,15.3158391 17.7916366,14.7525069 17.9858033,14.0383403 C18.2158033,13.1688958 18.3316774,11.832229 18.3334255,10.02834 C18.3444553,8.21445094 18.231359,6.87250641 17.9941368,6.00250642 C17.8024701,5.28750643 17.2399693,4.7233395 16.5258026,4.5308395 Z M8.3341368,7.50417312 L12.6733033,10.0083399 L8.32997004,12.5041731 L8.3341368,7.50417312 Z" fill="#FFFFFF" mask="url(#mask-2)"></path>
            </g>
        </g>
    </g>
</svg>